HIERARCHY
ROOT ui
{
	 OFFSET 0 0 0
	 CHANNELS 3 XPosition YPosition Z Position
	 EndSite
	 {
	 OFFSET 0 -1 0
	 }
}
ROOT li
{
	 OFFSET 0 0 0
	 CHANNELS 3 XPosition YPosition Z Position
	 EndSite
	 {
	 OFFSET 0 -1 0
	 }
}
ROOT ul
{
	 OFFSET 0 0 0
	 CHANNELS 3 XPosition YPosition Z Position
	 EndSite
	 {
	 OFFSET 0 -1 0
	 }
}
ROOT ll
{
	 OFFSET 0 0 0
	 CHANNELS 3 XPosition YPosition Z Position
	 EndSite
	 {
	 OFFSET 0 -1 0
	 }
}
ROOT tt
{
	 OFFSET 0 0 0
	 CHANNELS 3 XPosition YPosition Z Position
	 EndSite
	 {
	 OFFSET 0 -1 0
	 }
}
ROOT tb
{
	 OFFSET 0 0 0
	 CHANNELS 3 XPosition YPosition Z Position
	 EndSite
	 {
	 OFFSET 0 -1 0
	 }
}
ROOT td
{
	 OFFSET 0 0 0
	 CHANNELS 3 XPosition YPosition Z Position
	 EndSite
	 {
	 OFFSET 0 -1 0
	 }
}
ROOT v
{
	 OFFSET 0 0 0
	 CHANNELS 3 XPosition YPosition Z Position
	 EndSite
	 {
	 OFFSET 0 -1 0
	 }
}
ROOT bn
{
	 OFFSET 0 0 0
	 CHANNELS 3 XPosition YPosition Z Position
	 EndSite
	 {
	 OFFSET 0 -1 0
	 }
}
MOTION
Frames: 13
Frame Time: 0.002
0.0014213769435882568	5.05918025970459E-4	0		0.5045625610351563	-2.501706298828125	0		-1.123860595703125	0.04633829498291016	0		-0.69209130859375	-2.6143984375	0		1.3430750732421874	-0.8330835571289062	0		2.96822900390625	0.1017215805053711	0		4.49401123046875	0.31146792602539064	0		5.5823232421875	0.055660118103027345	0		-0.12907321166992186	5.97760791015625	0		
-0.019318342208862305	-0.003928970098495483	0		0.4881034545898438	-2.508159912109375	0		-1.123505615234375	0.04631492233276367	0		-0.6585048217773437	-2.620059326171875	0		1.328736328125	-0.8234743041992187	0		2.933479248046875	0.09796493530273437	0		4.495037109375	0.29815313720703124	0		5.5826005859375	0.057095123291015626	0		-0.13044305419921876	5.97973388671875	0		
0.002980113983154297	-0.007264280796051025	0		0.5136880493164062	-2.51349072265625	0		-1.123146240234375	0.0462940673828125	0		-0.6829573364257813	-2.62749462890625	0		1.3350831298828125	-0.8292974853515624	0		2.933831787109375	0.09847645568847656	0		4.4995087890625	0.30578439331054685	0		5.57346240234375	0.04173023223876953	0		-0.129904296875	5.97782275390625	0		
-0.023484872817993163	0.0014246490001678467	0		0.5013594665527343	-2.5140244140625	0		-1.1187080078125	0.05019301986694336	0		-0.6421993408203125	-2.6252861328125	0		1.347550537109375	-0.8292437133789062	0		2.971214599609375	0.10021857452392578	0		4.502955078125	0.3124360961914063	0		5.5902470703125	0.05446443557739258	0		-0.27968359375	5.96203515625	0		
0.01081907844543457	-0.0011493020057678223	0		0.5222329711914062	-2.5042451171875	0		-1.1142799072265626	0.054098602294921874	0		-0.6744037475585938	-2.61955615234375	0		1.3091405029296874	-0.8221380004882812	0		2.936892333984375	0.11744522857666016	0		4.50326806640625	0.31313739013671876	0		5.5770146484375	0.0617600212097168	0		-0.26315185546875	5.9587802734375	0		
-0.013815589904785156	4.967570006847382E-4	0		0.5187947387695313	-2.50796728515625	0		-1.1180283203125	0.050178123474121095	0		-0.651669189453125	-2.615958740234375	0		1.34538720703125	-0.8315847778320312	0		2.934848388671875	0.09997789764404297	0		4.495591796875	0.31497918701171873	0		5.583693359375	0.0628143196105957	0		-0.13111117553710938	5.9781650390625	0		
0.0035245609283447265	0.0012798709869384765	0		0.519405517578125	-2.507775634765625	0		-1.1217916259765626	0.046264469146728514	0		-0.6988318481445313	-2.604923583984375	0		1.3368690185546874	-0.828115478515625	0		2.93826171875	0.10538397979736328	0		4.49587890625	0.3156264343261719	0		5.57039306640625	0.0647989501953125	0		-0.13147303771972657	5.97828173828125	0		
-0.017267236709594725	-0.003160521984100342	0		0.51687841796875	-2.5125263671875	0		-1.121490966796875	0.04627614593505859	0		-0.6565812377929687	-2.62171630859375	0		1.3431197509765624	-0.834961181640625	0		2.96526611328125	0.09128455352783203	0		4.50484423828125	0.3010594482421875	0		5.5811787109375	0.048212821960449216	0		-0.2642266845703125	5.9590849609375	0		
0.00901512336730957	-0.0035568010807037354	0		0.47846185302734373	-2.509556640625	0		-1.117128173828125	0.05021484756469727	0		-0.6848475952148437	-2.61206591796875	0		1.349629638671875	-0.827820556640625	0		2.933975341796875	0.11335022735595703	0		4.504384765625	0.3156517333984375	0		5.57793505859375	0.06165432357788086	0		-0.2645267028808594	5.95918994140625	0		
0.007446506023406982	0.0046126370429992675	0		0.523048828125	-2.50527001953125	0		-1.1168629150390625	0.05024443054199219	0		-0.6473707275390626	-2.61374169921875	0		1.3530535888671875	-0.82363037109375	0		2.944950927734375	0.09952547454833985	0		4.50150634765625	0.31024822998046875	0		5.5887236328125	0.04836975860595703	0		-0.13237675476074218	5.9786357421875	0		
-0.012377572059631348	0.0011440190076828004	0		0.49553097534179685	-2.503537353515625	0		-1.1166146240234376	0.05028263473510742	0		-0.6838779296875	-2.611924072265625	0		1.34135546875	-0.8241503295898438	0		2.943456298828125	0.11293199920654297	0		4.5017333984375	0.31074407958984374	0		5.584794921875	0.068599609375	0		-0.13261129760742188	5.97875390625	0		
0.009773344993591308	-0.003167114019393921	0		0.5198450927734375	-2.50885107421875	0		-1.046496826171875	0.043932380676269533	0		-0.663415283203125	-2.61024560546875	0		1.338591796875	-0.82686328125	0		2.93646484375	0.10241790771484376	0		4.49708642578125	0.3183006591796875	0		5.57855615234375	0.06982642364501954	0		-0.13281419372558595	5.97887255859375	0		
-0.02090241241455078	0.0025765008926391603	0		0.49427178955078127	-2.506173095703125	0		-1.1202467041015625	0.046463768005371095	0		-0.652208251953125	-2.61937890625	0		1.332984619140625	-0.8205308837890625	0		2.92479833984375	0.10897377014160156	0		4.49114599609375	0.31184130859375	0		5.5757275390625	0.053503028869628905	0		-0.26441693115234377	5.9586025390625	0		
